<svg width="34" height="34" viewBox="0 0 34 34" fill="none" xmlns="http://www.w3.org/2000/svg">
<path fill-rule="evenodd" clip-rule="evenodd" d="M0.333008 17C0.333008 26.2 7.81634 33.6666 16.9997 33.6666L17.4659 33.6602C26.4506 33.413 33.6663 26.044 33.6663 17C33.6663 7.81665 26.1997 0.333313 16.9997 0.333313C7.81634 0.333313 0.333008 7.81665 0.333008 17ZM20.2997 10.3333C20.783 10.8333 20.783 11.6166 20.283 12.1L15.3663 17L20.283 21.9C20.783 22.3833 20.783 23.1833 20.2997 23.6666C19.7997 24.1666 19.0163 24.1666 18.533 23.6666L12.7163 17.8833C12.483 17.65 12.3497 17.3333 12.3497 17C12.3497 16.6666 12.483 16.35 12.7163 16.1166L18.533 10.3333C18.7663 10.0833 19.083 9.96665 19.3997 9.96665C19.733 9.96665 20.0497 10.0833 20.2997 10.3333Z" fill="#141024"/>
</svg>
